<svg width="1200" height="1200" viewBox="0 0 1200 1200" fill="none" xmlns="http://www.w3.org/2000/svg">
<g clip-path="url(#clip0_395_76)">
<path d="M480.086 474.013C494.275 433.866 526.18 395.374 566.869 379.425C586.358 371.786 606.629 366.365 626.325 359.311C654.203 349.326 680.131 334.998 702.713 315.764C718.373 302.426 732.997 289.701 752.588 282.022C769.536 275.379 787.799 272.616 805.826 276.1C887.595 291.918 890.626 378.434 867.663 444.179C855.246 479.729 842.786 515.692 837.077 553.049C832.663 581.933 832.23 606.142 820.257 633.202C794.399 691.645 740.499 725.259 677.574 730.937C576.868 740.024 475.031 681.601 466.821 572.877C466.82 572.864 466.819 572.85 466.818 572.837C464.394 540.716 468.789 505.978 480.086 474.013Z" fill="#EBB211"/>
<path d="M559.147 515.778C614.322 460.603 614.322 371.145 559.147 315.97C503.971 260.795 414.514 260.795 359.339 315.97C304.163 371.145 304.163 460.603 359.339 515.778C414.514 570.954 503.971 570.954 559.147 515.778Z" fill="#CE1465"/>
<path d="M600.536 415.874C600.536 399.919 597.853 384.6 592.978 370.295C584.201 373.129 575.458 376.059 566.869 379.425C526.18 395.373 494.275 433.866 480.086 474.013C470.625 500.783 466.024 529.493 466.196 556.986C540.999 553.363 600.536 491.575 600.536 415.874Z" fill="#D55C39"/>
<path d="M344.886 918.152C341.643 918.152 339.168 917.256 337.462 915.464C335.755 913.672 334.902 911.112 334.902 907.784V870.664L338.998 882.056L308.79 839.176C307.595 837.384 307.083 835.464 307.254 833.416C307.424 831.283 308.278 829.448 309.814 827.912C311.35 826.376 313.526 825.608 316.342 825.608C318.39 825.608 320.224 826.12 321.846 827.144C323.552 828.168 325.174 829.789 326.71 832.008L347.19 861.576H343.094L363.574 832.008C365.195 829.704 366.774 828.083 368.31 827.144C369.931 826.12 371.808 825.608 373.942 825.608C376.672 825.608 378.806 826.333 380.342 827.784C381.878 829.149 382.688 830.899 382.774 833.032C382.859 835.08 382.134 837.213 380.598 839.432L350.774 882.056L354.742 870.664V907.784C354.742 914.696 351.456 918.152 344.886 918.152ZM405.905 918.408C400.614 918.408 396.219 917.427 392.721 915.464C389.222 913.501 386.619 910.557 384.913 906.632C383.291 902.621 382.481 897.672 382.481 891.784V862.856C382.481 859.613 383.291 857.181 384.913 855.56C386.619 853.939 389.009 853.128 392.081 853.128C395.153 853.128 397.542 853.939 399.249 855.56C400.955 857.181 401.809 859.613 401.809 862.856V892.296C401.809 896.051 402.577 898.867 404.113 900.744C405.649 902.536 408.081 903.432 411.409 903.432C415.078 903.432 418.065 902.152 420.369 899.592C422.758 896.947 423.953 893.491 423.953 889.224V862.856C423.953 859.613 424.763 857.181 426.385 855.56C428.091 853.939 430.481 853.128 433.553 853.128C436.71 853.128 439.099 853.939 440.721 855.56C442.427 857.181 443.281 859.613 443.281 862.856V908.296C443.281 914.867 440.166 918.152 433.937 918.152C430.865 918.152 428.518 917.299 426.897 915.592C425.275 913.885 424.465 911.453 424.465 908.296V899.72L426.385 904.712C424.507 909.064 421.819 912.435 418.321 914.824C414.822 917.213 410.683 918.408 405.905 918.408ZM463.613 917C461.735 917 460.157 916.531 458.877 915.592C457.597 914.568 456.743 913.288 456.317 911.752C455.89 910.216 455.89 908.552 456.317 906.76C456.829 904.968 457.81 903.304 459.26 901.768L490.621 864.136V868.616H462.845C460.541 868.616 458.749 867.976 457.469 866.696C456.189 865.416 455.549 863.667 455.549 861.448C455.549 859.059 456.189 857.267 457.469 856.072C458.749 854.792 460.541 854.152 462.845 854.152H499.837C502.141 854.152 503.975 854.664 505.341 855.688C506.706 856.712 507.602 857.992 508.029 859.528C508.541 860.979 508.583 862.6 508.157 864.392C507.815 866.099 506.919 867.72 505.469 869.256L473.341 907.656V902.664H503.037C507.901 902.664 510.333 905.053 510.333 909.832C510.333 912.136 509.693 913.928 508.413 915.208C507.133 916.403 505.341 917 503.037 917H463.613ZM542.905 918.408C537.614 918.408 533.219 917.427 529.721 915.464C526.222 913.501 523.619 910.557 521.913 906.632C520.291 902.621 519.481 897.672 519.481 891.784V862.856C519.481 859.613 520.291 857.181 521.913 855.56C523.619 853.939 526.009 853.128 529.081 853.128C532.153 853.128 534.542 853.939 536.249 855.56C537.955 857.181 538.809 859.613 538.809 862.856V892.296C538.809 896.051 539.577 898.867 541.113 900.744C542.649 902.536 545.081 903.432 548.409 903.432C552.078 903.432 555.065 902.152 557.369 899.592C559.758 896.947 560.953 893.491 560.953 889.224V862.856C560.953 859.613 561.763 857.181 563.385 855.56C565.091 853.939 567.481 853.128 570.553 853.128C573.71 853.128 576.099 853.939 577.721 855.56C579.427 857.181 580.281 859.613 580.281 862.856V908.296C580.281 914.867 577.166 918.152 570.937 918.152C567.865 918.152 565.518 917.299 563.897 915.592C562.275 913.885 561.465 911.453 561.465 908.296V899.72L563.385 904.712C561.507 909.064 558.819 912.435 555.321 914.824C551.822 917.213 547.683 918.408 542.905 918.408ZM607.269 917C603.941 917 601.381 916.104 599.589 914.312C597.797 912.52 596.901 909.96 596.901 906.632V837.128C596.901 833.8 597.797 831.24 599.589 829.448C601.381 827.656 603.941 826.76 607.269 826.76H638.245C644.645 826.76 650.106 827.699 654.629 829.576C659.151 831.453 662.565 834.141 664.869 837.64C667.258 841.139 668.453 845.32 668.453 850.184C668.453 855.56 666.917 860.125 663.845 863.88C660.773 867.635 656.549 870.152 651.173 871.432V869.384C657.402 870.493 662.223 872.968 665.637 876.808C669.135 880.563 670.885 885.469 670.885 891.528C670.885 899.549 668.111 905.821 662.565 910.344C657.018 914.781 649.381 917 639.653 917H607.269ZM615.845 902.28H636.965C642.085 902.28 645.839 901.299 648.229 899.336C650.618 897.288 651.812 894.301 651.812 890.376C651.812 886.451 650.618 883.507 648.229 881.544C645.839 879.581 642.085 878.6 636.965 878.6H615.845V902.28ZM615.845 863.88H634.789C639.738 863.88 643.407 862.941 645.797 861.064C648.186 859.187 649.381 856.371 649.381 852.616C649.381 848.947 648.186 846.173 645.797 844.296C643.407 842.419 639.738 841.48 634.789 841.48H615.845V863.88ZM705.485 918.408C700.877 918.408 696.738 917.512 693.069 915.72C689.399 913.928 686.541 911.496 684.493 908.424C682.445 905.352 681.421 901.896 681.421 898.056C681.421 893.448 682.615 889.821 685.005 887.176C687.394 884.445 691.277 882.525 696.653 881.416C702.029 880.221 709.154 879.624 718.029 879.624H724.813V889.608H718.157C713.805 889.608 710.263 889.864 707.533 890.376C704.887 890.803 702.967 891.571 701.773 892.68C700.663 893.789 700.109 895.325 700.109 897.288C700.109 899.677 700.919 901.64 702.541 903.176C704.247 904.712 706.679 905.48 709.837 905.48C712.311 905.48 714.487 904.925 716.365 903.816C718.327 902.621 719.863 901.043 720.973 899.08C722.082 897.032 722.637 894.728 722.637 892.168V877.448C722.637 873.693 721.783 871.048 720.077 869.512C718.37 867.891 715.469 867.08 711.373 867.08C709.069 867.08 706.551 867.379 703.821 867.976C701.175 868.488 698.231 869.384 694.989 870.664C693.111 871.517 691.447 871.731 689.997 871.304C688.546 870.792 687.437 869.939 686.669 868.744C685.901 867.464 685.517 866.099 685.517 864.648C685.517 863.112 685.943 861.661 686.797 860.296C687.65 858.845 689.058 857.779 691.021 857.096C695.031 855.475 698.786 854.365 702.285 853.768C705.869 853.171 709.154 852.872 712.141 852.872C718.711 852.872 724.087 853.853 728.269 855.816C732.535 857.693 735.735 860.637 737.869 864.648C740.002 868.573 741.069 873.651 741.069 879.88V908.296C741.069 911.453 740.301 913.885 738.765 915.592C737.229 917.299 735.01 918.152 732.109 918.152C729.207 918.152 726.946 917.299 725.325 915.592C723.789 913.885 723.021 911.453 723.021 908.296V903.56L723.917 904.328C723.405 907.229 722.295 909.747 720.589 911.88C718.967 913.928 716.877 915.549 714.317 916.744C711.757 917.853 708.813 918.408 705.485 918.408ZM765.215 918.152C762.057 918.152 759.625 917.299 757.919 915.592C756.297 913.885 755.487 911.453 755.487 908.296V862.856C755.487 859.699 756.297 857.309 757.919 855.688C759.625 853.981 761.972 853.128 764.958 853.128C768.031 853.128 770.377 853.981 771.999 855.688C773.62 857.309 774.431 859.699 774.431 862.856V870.152L773.023 865.928C774.985 861.747 777.887 858.547 781.727 856.328C785.652 854.024 790.089 852.872 795.039 852.872C800.073 852.872 804.212 853.853 807.455 855.816C810.697 857.693 813.129 860.595 814.751 864.52C816.372 868.36 817.183 873.267 817.183 879.24V908.296C817.183 911.453 816.329 913.885 814.623 915.592C813.001 917.299 810.612 918.152 807.455 918.152C804.383 918.152 801.993 917.299 800.287 915.592C798.665 913.885 797.855 911.453 797.855 908.296V880.136C797.855 875.784 797.044 872.669 795.423 870.792C793.887 868.829 791.497 867.848 788.255 867.848C784.159 867.848 780.873 869.128 778.399 871.688C776.009 874.248 774.815 877.661 774.815 881.928V908.296C774.815 914.867 771.615 918.152 765.215 918.152ZM841.34 918.152C838.182 918.152 835.75 917.299 834.044 915.592C832.422 913.885 831.612 911.453 831.612 908.296V835.464C831.612 832.221 832.422 829.789 834.044 828.168C835.75 826.461 838.182 825.608 841.34 825.608C844.412 825.608 846.758 826.461 848.38 828.168C850.086 829.789 850.94 832.221 850.94 835.464V880.136H851.196L869.756 859.528C871.633 857.395 873.34 855.816 874.876 854.792C876.497 853.683 878.63 853.128 881.276 853.128C883.921 853.128 885.926 853.811 887.292 855.176C888.742 856.541 889.468 858.205 889.468 860.168C889.553 862.045 888.742 863.965 887.036 865.928L867.452 887.816V880.52L889.212 905.608C890.833 907.571 891.516 909.533 891.26 911.496C891.089 913.459 890.236 915.08 888.7 916.36C887.164 917.555 885.201 918.152 882.812 918.152C879.91 918.152 877.564 917.597 875.772 916.488C874.065 915.379 872.316 913.672 870.524 911.368L851.196 889.864H850.94V908.296C850.94 914.867 847.74 918.152 841.34 918.152Z" fill="white"/>
</g>
<defs>
<clipPath id="clip0_395_76">
<rect width="1200" height="1200" fill="white"/>
</clipPath>
</defs>
</svg>
